<?xml version="1.0" encoding="UTF-8" standalone="no"?>
<!DOCTYPE svg PUBLIC "-//W3C//DTD SVG 1.1//EN" "http://www.w3.org/Graphics/SVG/1.1/DTD/svg11.dtd">
<svg width="100%" height="100%" viewBox="0 0 463 178" version="1.1" xmlns="http://www.w3.org/2000/svg" xmlns:xlink="http://www.w3.org/1999/xlink" xml:space="preserve" xmlns:serif="http://www.serif.com/" style="fill-rule:evenodd;clip-rule:evenodd;stroke-linejoin:round;stroke-miterlimit:2;">
    <g>
        <g>
            <path d="M129.87,104.55c-9.22,-2 -40.5,-14.4 -34.83,-31.08c3.79,-9.81 12.59,-9.8 20.15,-10.47l46.37,0l0,-12.09l-56,0c-8.82,0 -33.36,13.72 -21.61,44.8c2.52,6.21 12.37,18.62 38.18,25.16c18.88,5.24 28.64,7.34 27.69,24.53c0,8.18 -5.87,11.12 -16.36,11.12l-119.41,0l0,-43.82l53.1,0l0,-14.72l-53.1,0l0,-33.69l54.35,0l0,-13.88l-68.4,-0.12l0,118.7l140.57,0c0,0 24.33,0.64 23.08,-31.74c-0.84,-15 -16.15,-28.46 -33.78,-32.7" style="fill:#231f20;fill-rule:nonzero;"/>
            <path d="M415.54,49.98l-58.89,88.21l-58.21,-88.19l-44.06,108.45l-36.28,-42c28.52,-0.49 40.27,-17.71 38.82,-34.1c-1.91,-18 -17.75,-31.37 -39.62,-31.37l-42.65,0l0,120.31l17.27,-0.27l0,-53.1l5.39,0l47.22,52.86l20.28,0l34.4,-86.22l56.26,93.38l57.53,-96.82l33.9,89.41l16,0l-47.36,-120.55Zm-223.75,57.07l0,-43.94c0,0 2.65,0.07 29.23,0.07c15.07,1.12 20.05,11.85 19.21,23c-0.48,7.89 -6.77,21.08 -18.36,20.9l-30.08,-0.03Z" style="fill:#231f20;fill-rule:nonzero;"/>
            <path d="M314.05,49.86l41.85,57.56l80.09,-107.42l-79.44,83.33l-42.5,-33.47Z" style="fill:#ed954d;fill-rule:nonzero;"/>
        </g>
    </g>
</svg>
